# xmcd
#
# Track frame offsets: 
#        150
#        16024
#        31641
#        44940
#        58784
#        72115
#        86834
#        100592
#        114098
#        128639
#        144102
#        160991
#        177937
#        191928
#        208084
#        220605
#        234603
#        247345
#        259920
#        274215
#
# Disc length: 3823 seconds
#
# Revision: 2
# Processed by: cddbd v1.5.2PL0 Copyright (c) Steve Scherf et al.
# Submitted via: ExactAudioCopy v1.0b3
#
DISCID=210eed14
DTITLE=Thelonious Monk - Straight No Chaser
DYEAR=1953
DGENRE=Jazz
TTITLE0=Four In One
TTITLE1=Four In One (Alt-Take)
TTITLE2=Criss Cross
TTITLE3=Eronel
TTITLE4=Straight No Chaser
TTITLE5=Ask Me Now
TTITLE6=Willow Weep For Me
TTITLE7=Skippy
TTITLE8=Hornin' In
TTITLE9=Carolina Moon
TTITLE10=Let's Cool One
TTITLE11=I'll Follow You
TTITLE12=Little Rootie Tootie
TTITLE13=Sweet And Lovely
TTITLE14=Bye-Ya
TTITLE15=Monk's Dream
TTITLE16=Trinkle, Tinkle
TTITLE17=These Foolish Things
TTITLE18=Bemsha Swing
TTITLE19=Reflections
EXTD=YEAR: 1953
EXTT0=
EXTT1=
EXTT2=
EXTT3=
EXTT4=
EXTT5=
EXTT6=
EXTT7=
EXTT8=
EXTT9=
EXTT10=
EXTT11=
EXTT12=
EXTT13=
EXTT14=
EXTT15=
EXTT16=
EXTT17=
EXTT18=
EXTT19=
PLAYORDER=
